<svg data-v-423bf9ae="" xmlns="http://www.w3.org/2000/svg" viewBox="0 0 479 112" class="iconLeft"><!----><!----><!----><g data-v-423bf9ae="" id="643bc498-cabe-41d2-a058-a3722e4da66f" fill="#ffffff" transform="matrix(5.6980053264473165,0,0,5.6980053264473165,121.19514334180505,2.8210912481427286)"><path d="M2.79 14.35L2.79 10.09L6.80 10.09L6.80 8.69L2.79 8.69L2.79 5.98L7.31 5.98L7.31 4.58L1.20 4.58L1.20 14.35ZM10.26 14.35L10.26 9.70C10.26 8.95 10.93 8.54 12.14 8.54L12.74 8.54L12.74 7.07L12.33 7.07C11.17 7.07 10.54 7.73 10.33 8.47L10.26 8.47L10.26 7.07L8.74 7.07L8.74 14.35ZM16.88 14.52C18.91 14.52 20.23 13.03 20.23 10.71C20.23 8.39 18.91 6.90 16.88 6.90C14.85 6.90 13.54 8.39 13.54 10.71C13.54 13.03 14.85 14.52 16.88 14.52ZM16.88 13.26C15.85 13.26 15.15 12.61 15.15 11.33L15.15 10.09C15.15 8.81 15.85 8.16 16.88 8.16C17.92 8.16 18.62 8.81 18.62 10.09L18.62 11.33C18.62 12.61 17.92 13.26 16.88 13.26ZM23.45 14.35L23.45 9.48C23.45 8.62 24.23 8.22 25.03 8.22C25.97 8.22 26.40 8.79 26.40 9.93L26.40 14.35L27.93 14.35L27.93 9.73C27.93 7.94 27.05 6.90 25.56 6.90C24.44 6.90 23.83 7.49 23.52 8.27L23.45 8.27L23.45 7.07L21.92 7.07L21.92 14.35ZM33.39 14.35L33.39 13.10L31.98 13.10L31.98 8.32L33.50 8.32L33.50 7.07L31.98 7.07L31.98 5.08L30.60 5.08L30.60 6.36C30.60 6.86 30.44 7.07 29.93 7.07L29.32 7.07L29.32 8.32L30.45 8.32L30.45 12.77C30.45 13.76 31.01 14.35 32.06 14.35ZM38.58 10.86L38.58 9.31L34.71 9.31L34.71 10.86ZM43.54 14.52C44.90 14.52 45.96 13.93 46.51 13.05L45.61 12.17C45.19 12.84 44.59 13.26 43.69 13.26C42.46 13.26 41.78 12.46 41.78 11.34L41.78 11.10L46.77 11.10L46.77 10.53C46.77 8.51 45.68 6.90 43.54 6.90C41.47 6.90 40.19 8.39 40.19 10.71C40.19 13.03 41.47 14.52 43.54 14.52ZM43.54 8.09C44.55 8.09 45.16 8.83 45.16 9.95L45.16 10.09L41.78 10.09L41.78 10.00C41.78 8.88 42.49 8.09 43.54 8.09ZM49.99 14.35L49.99 9.48C49.99 8.62 50.78 8.22 51.58 8.22C52.51 8.22 52.95 8.79 52.95 9.93L52.95 14.35L54.47 14.35L54.47 9.73C54.47 7.94 53.59 6.90 52.11 6.90C50.99 6.90 50.37 7.49 50.06 8.27L49.99 8.27L49.99 7.07L48.47 7.07L48.47 14.35ZM61.17 14.35L62.69 14.35L62.69 3.99L61.17 3.99L61.17 8.27L61.10 8.27C60.79 7.41 60.02 6.90 59.05 6.90C57.22 6.90 56.15 8.32 56.15 10.71C56.15 13.10 57.22 14.52 59.05 14.52C60.02 14.52 60.79 14 61.10 13.15L61.17 13.15ZM59.51 13.20C58.46 13.20 57.76 12.46 57.76 11.34L57.76 10.08C57.76 8.96 58.46 8.22 59.51 8.22C60.44 8.22 61.17 8.72 61.17 9.46L61.17 11.96C61.17 12.70 60.44 13.20 59.51 13.20Z"></path></g><!----><g data-v-423bf9ae="" id="038a1a01-79a0-482d-8b58-c4f3d2a9e199" transform="matrix(1.1111168755425347,0,0,1.1111168755425347,-1.1703258088130184,0.44386799980679825)" stroke="none" fill="#f63"><path clip-rule="evenodd" d="M34.299 89.102C18.86 84.527-25.674 64.976 24.795 0c27.291 18.521 37.807 34.817 39.754 48.283-13.054 4.675-22.041 13.764-20.921 30.208-7.11-16.909-12.688-40.295-15.081-54.876-1.2 17.033 1.313 47.329 5.752 65.487z"></path><path clip-rule="evenodd" d="M51.772 93.184C48.014 82.738 40.207 48.778 98.54 50.65c1.712 53.348-26.544 51.379-39.376 47.778 5.312-10.34 12.15-19.672 20.803-27.551-10.615 5.877-20.068 13.332-28.195 22.307z"></path></g><!----></svg>